<svg width="26" height="28" viewBox="0 0 26 28" fill="none" xmlns="http://www.w3.org/2000/svg">
<path d="M23.548 15.7788C24.563 15.7788 25.375 14.9882 25.375 14C25.375 13.0118 24.563 12.2212 23.548 12.2212C23.1758 12.2212 22.8037 12.3529 22.4992 12.5506L19.9278 11.1012C19.9278 11.0682 19.9278 11.0024 19.9278 10.9694C19.9278 10.9365 19.9278 10.8706 19.9278 10.8376L22.4992 9.38824C22.8037 9.58588 23.142 9.71765 23.548 9.71765C24.563 9.71765 25.375 8.92706 25.375 7.93882C25.375 6.95059 24.563 6.16 23.548 6.16C23.1758 6.16 22.8037 6.29176 22.4992 6.48941L19.9278 5.04C19.9278 5.00706 19.9278 4.94118 19.9278 4.90824C19.9278 3.92 19.1158 3.12941 18.1008 3.12941C17.0858 3.12941 16.2738 3.92 16.2738 4.90824C16.2738 5.89647 17.0858 6.68706 18.1008 6.68706C18.473 6.68706 18.8452 6.55529 19.1497 6.35765L21.721 7.80706C21.721 7.84 21.721 7.90588 21.721 7.93882C21.721 7.97176 21.721 8.03765 21.721 8.07059L19.1497 9.52C18.8452 9.32235 18.5068 9.19059 18.1008 9.19059C17.6948 9.19059 17.3565 9.32235 17.052 9.52L14.4807 8.07059C14.4807 8.03765 14.4807 7.97176 14.4807 7.93882C14.4807 7.21412 14.0408 6.62118 13.4318 6.32471V3.39294C14.0408 3.09647 14.4807 2.50353 14.4807 1.77882C14.4807 0.790588 13.6687 -6.28303e-08 12.6537 -6.28303e-08C11.6387 -6.28303e-08 10.8267 0.790588 10.8267 1.77882C10.8267 2.50353 11.2665 3.09647 11.8755 3.39294V6.29176C11.2665 6.58823 10.8267 7.18118 10.8267 7.90588C10.8267 8.89412 11.6387 9.68471 12.6537 9.68471C13.0258 9.68471 13.398 9.55294 13.7025 9.35529L16.2738 10.8047C16.2738 10.8376 16.2738 10.9035 16.2738 10.9365C16.2738 10.9694 16.2738 11.0353 16.2738 11.0682L13.7025 12.5176C13.398 12.32 13.0597 12.1882 12.6537 12.1882C12.2477 12.1882 11.9093 12.32 11.6048 12.5176L9.0335 11.0682C9.0335 11.0353 9.0335 10.9694 9.0335 10.9365C9.0335 10.2118 8.59367 9.61882 7.98467 9.32235V6.42353C8.59367 6.12706 9.0335 5.53412 9.0335 4.80941C9.0335 3.82118 8.2215 3.03059 7.2065 3.03059C6.1915 3.03059 5.41333 3.85412 5.41333 4.84235C5.41333 5.56706 5.85317 6.16 6.46217 6.45647V9.32235C6.36067 9.35529 6.293 9.42118 6.1915 9.45412L3.62017 8.00471C3.62017 7.97176 3.62017 7.90588 3.62017 7.87294C3.62017 6.88471 2.80817 6.09412 1.79317 6.09412C0.778167 6.09412 0 6.88471 0 7.87294C0 8.59765 0.439833 9.19059 1.04883 9.48706V12.3859C0.439833 12.6824 0 13.2753 0 14C0 14.9882 0.812 15.7788 1.827 15.7788C2.842 15.7788 3.654 14.9882 3.654 14C3.654 13.2753 3.21417 12.6824 2.60517 12.3859V9.48706C2.70667 9.45412 2.77433 9.38824 2.87583 9.35529L5.44717 10.8047C5.44717 10.8376 5.44717 10.9035 5.44717 10.9365C5.44717 11.6612 5.887 12.2541 6.496 12.5506V15.4494C5.887 15.7459 5.44717 16.3388 5.44717 17.0635C5.44717 17.0965 5.44717 17.1624 5.44717 17.1953L2.87583 18.6447C2.57133 18.4471 2.233 18.3153 1.827 18.3153C0.812 18.3153 0 19.1059 0 20.0941C0 21.0824 0.812 21.8729 1.827 21.8729C2.842 21.8729 3.654 21.0824 3.654 20.0941C3.654 20.0612 3.654 19.9953 3.654 19.9624L6.22533 18.5129C6.52983 18.7106 6.86817 18.8424 7.27417 18.8424C8.28917 18.8424 9.10117 18.0518 9.10117 17.0635C9.10117 16.3388 8.66133 15.7459 8.05233 15.4494V12.5506C8.15383 12.5176 8.2215 12.4518 8.323 12.4188L10.8943 13.8682C10.8943 13.9012 10.8943 13.9671 10.8943 14C10.8943 14.7247 11.3342 15.3176 11.9432 15.6141V18.5129C11.3342 18.8094 10.8943 19.4024 10.8943 20.1271C10.8943 20.16 10.8943 20.2259 10.8943 20.2588L8.323 21.7082C8.0185 21.5106 7.68017 21.3788 7.27417 21.3788C6.25917 21.3788 5.44717 22.1694 5.44717 23.1576C5.44717 24.1459 6.25917 24.9365 7.27417 24.9365C8.28917 24.9365 9.10117 24.1459 9.10117 23.1576C9.10117 23.1247 9.10117 23.0588 9.10117 23.0259L11.6725 21.5765C11.7402 21.6424 11.8417 21.6753 11.9432 21.7082V24.6071C11.3342 24.9035 10.8943 25.4965 10.8943 26.2212C10.8943 27.2094 11.7063 28 12.7213 28C13.7363 28 14.5483 27.2094 14.5483 26.2212C14.5483 26.1882 14.5483 26.1224 14.5483 26.0894L17.1197 24.64C17.4242 24.8376 17.7625 24.9694 18.1685 24.9694C19.1835 24.9694 19.9955 24.1788 19.9955 23.1906C19.9955 22.2024 19.1835 21.4118 18.1685 21.4118C17.1535 21.4118 16.2738 22.1694 16.2738 23.1576C16.2738 23.1906 16.2738 23.2565 16.2738 23.2894L13.7025 24.7388C13.6348 24.6729 13.5333 24.64 13.4318 24.6071V21.7082C14.0408 21.4118 14.4807 20.8188 14.4807 20.0941C14.4807 20.0612 14.4807 19.9953 14.4807 19.9624L17.052 18.5129C17.3565 18.7106 17.6948 18.8424 18.1008 18.8424C18.5068 18.8424 18.8452 18.7106 19.1497 18.5129L21.721 19.9624C21.721 19.9953 21.721 20.0612 21.721 20.0941C21.721 21.0824 22.533 21.8729 23.548 21.8729C24.563 21.8729 25.375 21.0824 25.375 20.0941C25.375 19.1059 24.563 18.3153 23.548 18.3153C23.1758 18.3153 22.8037 18.4471 22.4992 18.6447L19.9278 17.1953C19.9278 17.1624 19.9278 17.0965 19.9278 17.0635C19.9278 16.0753 19.1158 15.2847 18.1008 15.2847C17.0858 15.2847 16.2738 16.0753 16.2738 17.0635C16.2738 17.0965 16.2738 17.1624 16.2738 17.1953L13.7025 18.6447C13.6348 18.5788 13.5333 18.5459 13.4318 18.5129V15.5812C14.0408 15.2847 14.4807 14.6918 14.4807 13.9671C14.4807 13.9341 14.4807 13.8682 14.4807 13.8353L17.052 12.3859C17.3565 12.5835 17.6948 12.7153 18.1008 12.7153C18.5068 12.7153 18.8452 12.5835 19.1497 12.3859L21.721 13.8353C21.721 13.8682 21.721 13.9341 21.721 13.9671C21.721 14.9553 22.533 15.7788 23.548 15.7788Z" fill="#333333"/>
</svg>
